<?xml version="1.0" standalone="no"?><!DOCTYPE svg PUBLIC "-//W3C//DTD SVG 1.1//EN" "http://www.w3.org/Graphics/SVG/1.1/DTD/svg11.dtd"><svg class="icon" height="512" viewBox="0 0 1024 1024" version="1.1" xmlns="http://www.w3.org/2000/svg"><path d="M744.106667 685.226667c-49.493333-34.986667-116.053333-7.68-162.986667-69.973333 0 0-17.92-69.973333 22.186667-118.613333 39.253333-48.64 42.666667-125.44 33.28-185.173333-10.24-59.733333-65.706667-98.986667-124.586667-98.986667-7.68 0-28.16 5.12-28.16-12.8 0-16.213333-83.626667 60.586667-96.426667 111.786667-13.653333 54.613333-6.826667 136.533333 33.28 185.173333 39.253333 48.64 22.186667 118.613333 22.186667 118.613333-46.933333 63.146667-116.906667 38.4-166.4 73.386667-49.493333 34.986667-43.52 121.173333-43.52 121.173333L512 809.813333l279.893333 0C791.893333 809.813333 793.6 720.213333 744.106667 685.226667zM512 40.106667C251.733333 40.106667 40.106667 251.733333 40.106667 512s211.626667 471.893333 471.893333 471.893333 471.893333-211.626667 471.893333-471.893333S772.266667 40.106667 512 40.106667zM512 958.293333C266.24 958.293333 65.706667 757.76 65.706667 512S266.24 65.706667 512 65.706667s446.293333 200.533333 446.293333 446.293333S757.76 958.293333 512 958.293333z" /></svg>